<svg width="1893" height="1056" viewBox="0 0 1893 1056" fill="none" xmlns="http://www.w3.org/2000/svg">
<circle cx="955" cy="528" r="200" fill="#D9D9D9"/>
<path d="M1.68408 525.982C61.3692 525.982 120.778 530.479 180.565 527.157C305.696 520.206 431.766 529.387 556.867 520.759C601.797 517.661 647.431 516.581 692.399 516.581C699.624 516.581 706.849 516.581 714.074 516.581C725.978 516.581 748.124 521.127 758.468 514.231" stroke="black" stroke-width="3" stroke-linecap="round"/>
<path d="M944.138 1.87451C944.138 50.3702 943.083 101.163 933.562 148.766C927.175 180.701 925.336 210.485 925.336 242.907C925.336 268.501 922.986 293.553 922.986 319.159" stroke="black" stroke-width="3" stroke-linecap="round"/>
<path d="M953.539 751.607C941.917 839.422 951.676 929.797 932.517 1016.01C930.924 1023.18 928.067 1031.49 927.686 1038.34C927.443 1042.72 924.061 1047.01 923.116 1051.27C921.076 1060.45 924.465 1038.89 925.336 1035.99" stroke="black" stroke-width="3" stroke-linecap="round"/>
<path d="M1160.36 535.383C1404.18 535.383 1647.85 518.932 1891.29 518.932" stroke="black" stroke-width="3" stroke-linecap="round"/>
<path d="M29.2617 391.064C48.6675 391.064 68.5701 396.472 87.7011 399.159C114.066 402.864 140.458 404.981 166.885 408.014C213.344 413.345 260.266 417.58 307.039 418.386C387.765 419.778 469.134 417.569 549.398 416.109C588.018 415.407 625.801 407.559 664.253 407.002C674.135 406.859 692.522 400.81 688.413 413.959C685.552 423.113 687.063 437.9 674.878 436.095C631.209 429.626 585.955 429.771 541.935 429.771C514.982 429.771 488.171 427.494 461.359 427.494C414.014 427.494 366.118 422.94 318.929 422.94C250.316 422.94 182.068 418.386 113.506 418.386" stroke="black" stroke-width="3" stroke-linecap="round"/>
<path d="M31.5384 391.064C31.5384 400.989 29.8128 410.741 29.2615 420.663C29.1704 422.303 25.8067 426.669 28.2496 427.367C34.5811 429.176 43.5094 427.552 50.0062 428C98.5089 431.345 147.659 438.293 196.231 438.878C201.338 438.94 218.062 443.789 220.518 438.878" stroke="black" stroke-width="3" stroke-linecap="round"/>
<path d="M45.1997 958.002C161.196 964.107 276.911 968.639 393.053 972.169C458.897 974.17 524.669 974.718 590.508 976.343C633.072 977.394 675.517 980.771 718.139 980.771C738.968 980.771 759.797 980.771 780.626 980.771C798.086 980.771 816.181 978.984 833.753 978.367C840.992 978.113 848.056 976.484 855.256 976.217C858.392 976.101 835.635 972.166 832.994 971.663" stroke="black" stroke-width="3" stroke-linecap="round"/>
<path d="M49.7534 960.279C49.7534 970.525 49.7534 980.771 49.7534 991.017C49.7534 995.591 46.4565 1000.54 47.603 1004.55C49.6027 1011.55 147.763 1005.82 159.043 1005.82C254.661 1005.82 349.96 1010.37 445.421 1010.37C498.379 1010.37 551.337 1010.37 604.296 1010.37C629.819 1010.37 654.974 1010.08 680.444 1010.37C700.853 1010.6 721.057 1013.09 741.413 1012.65C755.593 1012.34 774.516 1012.78 788.468 1010.24C798.789 1008.37 808.658 1008.66 819.332 1008.09C824.52 1007.82 821.539 980.841 826.163 976.217" stroke="black" stroke-width="3" stroke-linecap="round"/>
<path d="M1165.42 393.341C1219.87 393.341 1274.42 397.084 1328.84 398.906C1441.75 402.688 1555.78 402.355 1668.73 399.033C1732.03 397.171 1795.4 397.895 1858.72 397.895C1865.39 397.895 1869.88 396.168 1867.19 404.219C1864.79 411.427 1865.07 428.623 1859.35 433.818C1856.44 436.466 1843.37 434.324 1840 434.324C1818.33 434.324 1796.78 432.165 1775.11 432.047C1730.67 431.807 1686.22 432.34 1641.78 432.047C1509.57 431.178 1377.32 425.217 1245.11 425.217C1227.25 425.217 1210.55 422.94 1192.74 422.94C1187.79 422.94 1169.74 425.867 1165.92 422.434C1165.04 421.639 1162.42 405.918 1167.69 413.833" stroke="black" stroke-width="3" stroke-linecap="round"/>
<path d="M1021.97 962.556C1056.57 962.556 1091.24 960.279 1125.95 960.279C1217.06 960.279 1308.36 964.052 1399.43 962.05C1475.04 960.388 1550.85 958.092 1626.35 953.955C1666.72 951.743 1707.97 954.22 1748.16 950.034C1780.33 946.683 1813.33 948.895 1845.69 948.895C1858 948.895 1857.58 950.692 1857.58 963.062C1857.58 971.891 1859.93 984.5 1857.45 993.167C1855.09 1001.44 1745.35 992.156 1735.52 992.156C1660.76 992.156 1586.2 998.986 1511.5 998.986C1399.49 998.986 1287.46 996.709 1175.53 996.709C1128.37 996.709 1081.38 996.709 1034.5 996.709C1016.14 996.709 1024.25 989.627 1024.25 976.217" stroke="black" stroke-width="3" stroke-linecap="round"/>
<path d="M45.1997 40.4272C101.367 40.4272 269.855 42.7041 213.687 42.7041" stroke="black" stroke-width="3" stroke-linecap="round"/>
<path d="M58.8608 106.456C117.935 106.456 177.405 119.24 236.456 122.394C289.383 125.221 342.352 124.671 395.33 124.671C402.161 124.671 408.991 124.671 415.822 124.671C426.032 124.671 413.944 170.754 412.913 178.43C408.397 212.049 404.403 246.509 400.263 279.624C399.34 287.012 397.522 294.111 395.963 301.128C394.712 306.755 392.492 306.668 386.476 306.82C360.285 307.483 334.304 309.097 308.051 309.097C241.478 309.097 175.017 306.82 108.446 306.82C98.9167 306.82 89.3876 306.82 79.8586 306.82C69.019 306.82 74.7989 250.007 74.7989 241.297C74.7989 196.29 83.9063 153.425 83.9063 108.733" stroke="black" stroke-width="3" stroke-linecap="round"/>
<path d="M473.25 131.501C577.789 131.501 683.269 133.926 787.203 121.382C806.342 119.072 825.661 120.535 844.884 120.117C851.525 119.973 867.275 112.649 863.478 124.038C854.776 150.146 844.359 174.733 837.547 201.578C832.701 220.679 831.555 240.465 828.566 259.891C827.434 267.248 827.033 276.524 820.471 281.774C815.198 285.992 816.032 287.688 806.177 288.605C757.436 293.139 708.079 290.882 659.193 290.882C607.837 290.882 556.481 290.882 505.126 290.882C499.433 290.882 493.741 290.882 488.049 290.882C480.317 290.882 480.024 262.186 479.574 257.235C475.951 217.384 480.08 177.933 480.08 138.332" stroke="black" stroke-width="3" stroke-linecap="round"/>
<path d="M999.204 35.8735C1054.02 35.8735 1108.65 41.1137 1163.52 40.3008C1182.97 40.0126 1202.38 38.1504 1221.83 38.1504C1225.48 38.1504 1227.6 38.9982 1229.17 35.8735" stroke="black" stroke-width="3" stroke-linecap="round"/>
<path d="M1024.25 115.563C1024.25 153.199 1012.44 189.686 1006.54 226.624C1003.26 247.168 999.204 309.41 999.204 288.605" stroke="black" stroke-width="3" stroke-linecap="round"/>
<path d="M1021.97 124.671C1084.25 124.671 1146.41 126.013 1208.68 126.822C1232.53 127.131 1260.11 132.296 1283.81 128.719C1295.83 126.904 1308.51 126.636 1320.24 124.165C1332.36 121.613 1344.81 122.394 1357.18 122.394C1365.07 122.394 1374.09 120.564 1374.76 130.869C1376.25 153.939 1374.34 177.296 1373.12 200.314C1372.48 212.302 1376.78 246.968 1367.55 258.5C1362.87 264.352 1351.18 263.125 1344.65 263.56C1303.67 266.292 1262.59 268.076 1221.58 270.39C1151.75 274.33 1083.04 270.39 1013.37 270.39C1002.58 270.39 991.783 270.39 980.989 270.39C975.565 270.39 961.593 272.302 974.159 268.113" stroke="black" stroke-width="3" stroke-linecap="round"/>
<path d="M1427.25 117.841C1427.25 150.716 1420.42 182.936 1420.42 215.746C1420.42 227.379 1415.87 236.09 1415.87 247.622" stroke="black" stroke-width="3" stroke-linecap="round"/>
<path d="M1436.36 113.287C1445.34 120.467 1470.6 115.564 1481.01 115.564C1524.91 115.564 1568.8 119.122 1612.69 119.991C1661.05 120.949 1709.35 120.118 1757.4 120.118C1782.42 120.118 1808.15 118.575 1832.54 124.671C1841.94 127.022 1837.19 171.463 1836.96 178.304C1836.19 201.921 1835.02 226.422 1832.41 249.899C1831.65 256.686 1828.35 263.776 1827.98 270.391C1827.46 279.779 1807.35 272.715 1800.91 272.161C1748.7 267.674 1696.95 258.855 1644.57 254.579C1585.5 249.757 1525.69 252.176 1466.47 252.176C1442.32 252.176 1418.36 254.008 1394.37 254.452C1377.46 254.766 1375.32 256.618 1390.82 245.345" stroke="black" stroke-width="3" stroke-linecap="round"/>
<path d="M1746.01 24.4893C1746.01 35.9743 1741.46 70.1272 1741.46 58.6422" stroke="black" stroke-width="3" stroke-linecap="round"/>
<path d="M1743.74 26.7661C1763.74 32.9194 1789.75 31.3198 1810.65 31.3198C1819.84 31.3198 1829.04 31.3198 1838.23 31.3198C1845.78 31.3198 1853.02 29.043 1861 29.043C1874.47 29.043 1875.8 32.1582 1875.8 45.9929C1875.8 49.4948 1877.68 65.2279 1873.52 65.4728C1852.77 66.6935 1831.56 65.4728 1810.78 65.4728C1788.08 65.4728 1766 63.1959 1743.74 63.1959" stroke="black" stroke-width="3" stroke-linecap="round"/>
<path d="M1843.92 47.2578C1849.89 53.975 1850.58 55.1923 1858.72 50.6731C1867.14 45.9971 1850.28 48.5866 1848.47 44.981" stroke="black" stroke-width="3" stroke-linecap="round"/>
<path d="M65.6914 652.903C65.6914 705.327 61.1376 757.45 61.1376 809.88C61.1376 824.907 58.29 840.196 58.8608 855.037C59.0056 858.803 61.1376 862.301 61.1376 866.928" stroke="black" stroke-width="3" stroke-linecap="round"/>
<path d="M61.1377 595.981C134.228 595.981 207.221 605.089 280.475 605.089C289.498 605.089 298.522 605.089 307.545 605.089C324.898 605.089 301.137 606.721 295.654 607.366" stroke="black" stroke-width="3" stroke-linecap="round"/>
<path d="M72.522 659.733C87.7175 659.733 102.688 660.952 117.806 662.516C155.531 666.419 193.315 666.6 231.143 668.841C281.431 671.82 331.277 673.829 381.669 673.395C402.515 673.215 425.209 672.946 445.927 670.612C452.894 669.827 474.232 663.297 468.696 675.671C458.688 698.042 456.757 726.812 452.758 750.808C449.351 771.251 447.192 791.795 444.156 812.283C443.282 818.186 444.273 850.99 436.693 850.99C348.327 850.99 260.056 848.713 171.692 848.713C151.422 848.713 132.158 847.826 112.367 852.128C93.3928 856.253 73.1639 860.097 54.3071 860.097" stroke="black" stroke-width="3" stroke-linecap="round"/>
<path d="M525.617 671.118C525.617 715.375 529.879 759.924 527.388 804.441C526.351 822.973 525.617 878.659 525.617 860.097" stroke="black" stroke-width="3" stroke-linecap="round"/>
<path d="M527.894 684.779C577.067 684.779 626.166 687.056 675.384 687.056C715.039 687.056 754.5 683.957 793.781 682.502C812.344 681.815 803.394 830.488 803.394 849.978C803.394 854.102 806.55 889.485 800.612 889.697C781.31 890.386 761.762 887.608 742.425 887.42C705.565 887.062 668.688 885.125 631.871 883.372C596.453 881.686 490.159 878.312 525.617 878.312" stroke="black" stroke-width="3" stroke-linecap="round"/>
<path d="M1097.11 712.102C1076.71 755.173 1089.97 807.785 1077.12 852.761C1075.2 859.493 1070.23 888.337 1072.06 887.42" stroke="black" stroke-width="3" stroke-linecap="round"/>
<path d="M1094.83 716.655C1125.32 715.131 1156.62 709.114 1186.92 705.271C1239.52 698.597 1293.12 698.362 1345.54 691.104C1356.09 689.643 1366.53 687.056 1377.16 687.056C1387.03 687.056 1396.9 687.056 1406.76 687.056C1408.91 687.056 1416.14 685.889 1417.64 687.562C1420.22 690.432 1418.15 704.515 1418.15 707.168C1418.15 724.245 1418.15 741.321 1418.15 758.398C1418.15 784.539 1418.15 810.681 1418.15 836.823C1418.15 841.198 1419.53 849.016 1417.64 853.267C1413.12 863.449 1391.27 865.361 1381.72 866.422C1315.03 873.831 1245.86 869.67 1179.08 867.434C1136.66 866.014 1094.01 864.651 1051.57 864.651C1046.02 864.651 1022.82 867.78 1019.7 864.651" stroke="black" stroke-width="3" stroke-linecap="round"/>
<path d="M1509.22 673.395C1507.59 699.507 1505.61 725.537 1504.54 751.693C1503.75 771.186 1504.11 791.604 1502.26 811.018C1501.19 822.276 1497.84 833.275 1497.84 844.159" stroke="black" stroke-width="3" stroke-linecap="round"/>
<path d="M1509.22 689.333C1580.42 683.959 1652.65 686.757 1724.01 687.056C1744.8 687.143 1773.28 693.257 1793.83 685.917C1804.99 681.931 1818.71 686.223 1830.01 686.929C1845.58 687.902 1842.98 690.937 1841.14 706.283C1836.37 745.989 1834.81 785.442 1834.81 825.438C1834.81 829.943 1838.73 860.097 1831.14 860.097C1784.28 860.097 1737.3 852.345 1690.48 849.851C1657.63 848.102 1625.11 845.854 1592.2 846.942C1553.98 848.205 1515.17 850.639 1477.35 846.436" stroke="black" stroke-width="3" stroke-linecap="round"/>
</svg>
