<svg width="264" height="29" viewBox="0 0 264 29" fill="none" xmlns="http://www.w3.org/2000/svg">
<path d="M7.18922 14.5397L14.7007 0.741994C15.2925 0.637883 15.8356 0.576642 16.336 0.546021C16.8363 0.521524 17.294 0.509277 17.7028 0.509277C18.1421 0.509277 18.6242 0.533776 19.1673 0.582769C19.7042 0.631762 20.2717 0.68688 20.8636 0.735873L13.2789 14.1478L21.5226 28.5273C20.9307 28.5763 20.3571 28.6253 19.8079 28.6805C19.2527 28.7294 18.7584 28.7601 18.3252 28.7601C17.9103 28.7601 17.4587 28.7478 16.9584 28.7172C16.458 28.6927 15.8966 28.6253 15.2803 28.5273L7.19533 14.5336L7.18922 14.5397ZM0.757812 0.705251C1.24596 0.631761 1.72191 0.576643 2.18566 0.552146C2.6494 0.52765 3.11926 0.515403 3.60741 0.515403C4.04675 0.515403 4.49218 0.52765 4.95592 0.552146C5.41967 0.576643 5.89561 0.631761 6.37766 0.705251V28.5702C5.88951 28.6498 5.41357 28.6988 4.95592 28.7233C4.49828 28.7478 4.03454 28.7662 3.5708 28.7662C3.10705 28.7662 2.6494 28.7539 2.18566 28.7233C1.72191 28.6988 1.24596 28.6498 0.757812 28.5702V0.705251Z" fill="white"/>
<path d="M23.6279 0.741994C24.5798 0.58889 25.5134 0.509277 26.4409 0.509277C27.3684 0.509277 28.3142 0.582766 29.2905 0.741994V11.643H38.5715V0.741994C39.5173 0.58889 40.457 0.509277 41.3845 0.509277C42.312 0.509277 43.2577 0.582766 44.234 0.741994V28.5274C43.2577 28.6805 42.3181 28.7601 41.4211 28.7601C40.4692 28.7601 39.5234 28.6805 38.5715 28.5274V16.5056H29.2905V28.5274C28.3142 28.6805 27.3745 28.7601 26.4775 28.7601C25.5317 28.7601 24.5798 28.6805 23.6279 28.5274V0.741994Z" fill="white"/>
<path d="M48.6577 0.741994C49.6096 0.58889 50.5432 0.509277 51.4707 0.509277C52.3982 0.509277 53.344 0.582766 54.3203 0.741994V28.5274C53.344 28.6805 52.4043 28.7601 51.5073 28.7601C50.5615 28.7601 49.6096 28.6805 48.6577 28.5274V0.741994Z" fill="white"/>
<path d="M59.519 0.741994C60.5441 0.58889 61.5326 0.509277 62.4845 0.509277C63.4852 0.509277 64.4738 0.582766 65.4501 0.741994L71.8021 16.6648L78.3495 0.741994C79.1488 0.58889 80.0275 0.509277 81.0038 0.509277C81.9801 0.509277 82.9198 0.582766 83.8168 0.741994L85.1287 28.5273C84.1524 28.6805 83.231 28.7601 82.3584 28.7601C81.4858 28.7601 80.6255 28.6805 79.7773 28.5273L79.0878 9.66491L73.4679 22.7278C73.1079 22.7768 72.7357 22.8257 72.3513 22.8625C71.9669 22.8992 71.5825 22.9237 71.198 22.9237C70.8624 22.9237 70.5268 22.9115 70.1973 22.887C69.8617 22.8625 69.52 22.8135 69.16 22.7339L63.9246 9.40157L63.3876 28.5335C62.5639 28.6866 61.7706 28.7662 61.0018 28.7662C60.178 28.7662 59.3298 28.6866 58.4573 28.5335L59.5373 0.74812L59.519 0.741994Z" fill="white"/>
<path d="M94.2512 5.53861H89.6686C89.5954 5.17729 89.5344 4.78534 89.4978 4.36277C89.4612 3.94021 89.4368 3.51764 89.4368 3.10732C89.4368 2.28055 89.5161 1.49666 89.6686 0.749512H99.871V21.1553C99.871 27.8122 94.599 29.0003 91.0904 29.0003C89.8944 29.0003 88.1737 28.688 87.5879 28.5349C87.5635 28.3573 87.5452 28.1736 87.533 27.996C87.5207 27.8184 87.5146 27.6224 87.5146 27.4142C87.5146 26.2261 87.7343 25.0441 88.1676 23.856C88.4543 23.9173 89.394 24.1683 90.1324 24.1683C91.0355 24.1683 94.2512 24.4501 94.2512 20.3407V5.53861Z" fill="white"/>
<path d="M104.112 0.741994C105.064 0.58889 105.998 0.509277 106.925 0.509277C107.853 0.509277 108.798 0.582766 109.775 0.741994V28.5274C108.798 28.6805 107.859 28.7601 106.962 28.7601C106.016 28.7601 105.064 28.6805 104.112 28.5274V0.741994Z" fill="white"/>
<path d="M121.978 0.74286C123.107 0.614253 124.163 0.504017 125.157 0.412155C126.146 0.320292 127.244 0.277427 128.452 0.277427C129.862 0.277427 140.046 0.0447064 140.046 8.97375C140.046 14.51 135.427 16.7392 135.427 16.7392L142.169 28.4854C141.657 28.5343 141.114 28.5895 140.552 28.6385C139.991 28.6874 139.411 28.712 138.82 28.712C137.843 28.712 136.879 28.6385 135.933 28.4792L128.69 15.5695C128.69 15.5695 129.416 15.2265 130.356 14.706C131.949 13.818 134.121 12.5441 134.121 9.65966C134.121 5.35436 130.619 4.94404 129.154 4.94404C128.587 4.94404 128.074 4.98079 127.61 5.0604V28.5221C127.147 28.5711 126.689 28.6201 126.225 28.6568C125.761 28.6936 125.316 28.712 124.877 28.712C124.437 28.712 123.98 28.6997 123.492 28.6752C123.003 28.6507 122.503 28.6017 121.99 28.5221V0.736739L121.978 0.74286Z" fill="white"/>
<path d="M156.869 18.2875L153.671 6.61481L150.321 18.2875H156.869ZM150.706 0.741728C151.243 0.668238 151.761 0.606997 152.243 0.570252C152.732 0.533507 153.268 0.515137 153.86 0.515137C154.373 0.515137 154.873 0.533507 155.361 0.570252C155.85 0.606997 156.387 0.668238 156.978 0.741728L165.643 28.5271C164.594 28.6802 163.562 28.7598 162.562 28.7598C161.561 28.7598 160.64 28.6802 159.712 28.5271L158.174 22.9602H149.009L147.429 28.5271C146.508 28.6802 145.617 28.7598 144.775 28.7598C143.823 28.7598 142.889 28.6802 141.962 28.5271L150.706 0.741728Z" fill="white"/>
<path d="M168.572 0.741994C169.597 0.58889 170.586 0.509277 171.538 0.509277C172.538 0.509277 173.527 0.582766 174.503 0.741994L180.855 16.6648L187.403 0.741994C188.202 0.58889 189.081 0.509277 190.057 0.509277C191.033 0.509277 191.973 0.582766 192.87 0.741994L194.182 28.5273C193.206 28.6805 192.284 28.7601 191.412 28.7601C190.539 28.7601 189.679 28.6805 188.831 28.5273L188.141 9.66491L182.521 22.7278C182.161 22.7768 181.789 22.8257 181.405 22.8625C181.02 22.8992 180.636 22.9237 180.251 22.9237C179.916 22.9237 179.58 22.9115 179.251 22.887C178.915 22.8625 178.573 22.8135 178.213 22.7339L172.978 9.40157L172.441 28.5335C171.617 28.6866 170.824 28.7662 170.055 28.7662C169.231 28.7662 168.383 28.6866 167.51 28.5335L168.591 0.74812L168.572 0.741994Z" fill="white"/>
<path d="M204.08 24.0511C204.311 24.0756 204.604 24.1001 204.964 24.1307C205.324 24.1552 205.758 24.1674 206.276 24.1674C207.454 24.1674 214.63 24.835 214.63 14.6995C214.63 4.56399 207.661 5.15192 206.581 5.15192C206.221 5.15192 205.806 5.15191 205.33 5.17029C204.854 5.18254 204.44 5.21315 204.08 5.26827V24.0511ZM198.417 0.748641C199.497 0.620033 200.626 0.509798 201.804 0.417935C202.981 0.326073 204.293 0.283203 205.733 0.283203C210.584 0.283203 214.276 1.49579 216.802 3.91483C219.328 6.34 220.597 9.97163 220.597 14.8158C220.597 19.6601 219.316 23.2672 216.747 25.5576C214.178 27.8542 210.371 28.9994 205.312 28.9994C204 28.9994 202.798 28.9565 201.694 28.8647C200.589 28.7728 199.497 28.6687 198.423 28.534V0.748641H198.417Z" fill="white"/>
<path d="M235.925 18.2875L232.728 6.61481L229.378 18.2875H235.925ZM229.762 0.741728C230.299 0.668238 230.818 0.606997 231.3 0.570252C231.788 0.533507 232.325 0.515137 232.917 0.515137C233.429 0.515137 233.93 0.533507 234.418 0.570252C234.906 0.606997 235.443 0.668238 236.035 0.741728L244.7 28.5271C243.65 28.6802 242.619 28.7598 241.618 28.7598C240.617 28.7598 239.696 28.6802 238.769 28.5271L237.231 22.9602H228.066L226.485 28.5271C225.564 28.6802 224.673 28.7598 223.831 28.7598C222.879 28.7598 221.946 28.6802 221.018 28.5271L229.762 0.741728Z" fill="white"/>
<path d="M251.906 15.6607C251.033 15.3239 250.252 14.9565 249.557 14.5584C248.861 14.1603 246.243 12.6354 246.243 8.35462C246.243 7.03793 246.487 0.276855 255.677 0.276855C258.972 0.276855 261.699 1.18936 262.956 1.63029C262.804 3.12459 262.395 4.59439 261.724 6.03969C261.339 5.88659 259.289 4.83935 255.835 4.83935C253.401 4.83935 252.058 5.7886 252.058 7.85244C252.058 9.91628 253.712 10.4858 254.096 10.6573C254.481 10.8288 257.562 12.0291 257.562 12.0291C258.539 12.4149 259.423 12.813 260.217 13.2295C261.016 13.6398 263.994 15.1157 263.994 20.1498C263.994 25.1838 260.516 28.9992 253.328 28.9992C248.525 28.9992 246.152 27.8233 245.511 27.5661C245.584 26.819 245.731 26.0351 245.932 25.2267C246.139 24.4183 246.377 23.5977 246.664 22.7709C247.744 23.2118 249.892 24.0876 252.748 24.0876C257.446 24.0876 257.947 21.6502 257.947 20.4192C257.947 17.547 254.713 16.7325 254.249 16.5549L251.9 15.6669L251.906 15.6607Z" fill="white"/>
</svg>
