<svg width="263" height="47" viewBox="0 0 263 47" fill="none" xmlns="http://www.w3.org/2000/svg">
<path d="M256.58 13.2772C257.41 11.8258 262.706 2.63339 262.706 2.63339C261.449 1.50042 260.088 0.624665 258.618 0L249.758 14.9675C249.758 14.9675 252.205 16.4679 253.169 17.1232C254.115 17.7662 254.932 18.4093 255.597 19.0278C256.25 19.6402 257.593 20.9753 257.593 22.4512C257.593 23.9271 256.867 24.8641 253.742 24.8641H247.573C244.956 24.8641 243.253 24.1109 243.253 24.1109L243.314 23.5229C243.333 23.2841 243.345 23.0391 243.345 22.7942V12.7199C242.387 12.5668 241.459 12.4933 240.55 12.4933C239.641 12.4933 238.726 12.5668 237.798 12.7199V12.7322V22.0838C237.798 24.1782 237.188 24.858 235.473 24.858H233.197C230.018 24.858 228.224 23.8046 228.224 23.8046C228.224 23.8046 228.523 22.8493 228.523 21.5571C228.523 17.754 225.875 12.3892 219.627 12.3892C215.13 12.3892 212.732 16.0821 211.883 17.4478C211.035 18.8012 210.272 20.6078 209.607 22.8125C209.394 23.5168 208.802 24.8641 206.935 24.8641H204.238C203.53 24.8641 203.158 23.6148 202.999 23.0453C202.84 22.4696 201.986 17.5764 201.834 17.0742C201.699 16.6394 200.393 11.5808 194.231 11.5808C191.204 11.5808 188.074 12.6709 188.074 12.6709C188.001 13.4732 187.946 14.2571 187.939 15.0226C187.933 15.7881 187.976 16.5046 188.074 17.1905C188.074 17.1905 190.441 16.0821 193.224 16.0821C196.244 16.0821 196.928 19.2544 197.141 20.7119C197.581 23.7495 198.172 24.8703 198.172 24.8703H183.638C182.381 24.8703 181.862 24.662 181.862 21.6306V12.7015H175.486C172.331 12.7015 166.125 13.3078 166.125 21.404V28.2385C166.125 31.0189 163.196 33.6829 158.266 33.6829C151.865 33.6829 149.217 30.6698 149.217 26.8239C149.217 23.3147 151.084 20.9508 151.084 20.9508C150.407 20.4057 149.699 19.928 148.973 19.5177C148.24 19.1074 147.52 18.8624 146.685 18.5562C146.685 18.5562 143.67 22.1879 143.67 27.1423C143.67 28.6856 144.567 38.521 158.278 38.521C166.247 38.521 171.678 33.5421 171.678 27.8527V21.8082C171.678 17.5029 174.033 17.2518 176.26 17.2518V23.1432C176.26 28.0303 179.623 29.6042 182.497 29.6042H207.575C211.218 29.6042 212.799 27.1546 212.799 27.1546C212.799 27.1546 215.355 29.8247 220.121 29.8247C224.234 29.8247 226.351 27.3015 226.351 27.3015C226.351 27.3015 228.664 29.6042 232.715 29.6042C233.362 29.6042 235.583 29.6042 237.28 29.6042C240.367 29.6042 241.618 27.9936 241.618 27.9936C241.618 27.9936 243.546 29.6042 247.531 29.6042C248.69 29.6042 252.553 29.6042 254.237 29.6042C260.04 29.6042 262.81 26.7014 262.81 22.5124C262.81 18.3235 259.777 15.7085 256.592 13.2711L256.58 13.2772ZM219.23 25.1948C216.533 25.1948 214.452 23.7005 214.452 23.7005C214.452 23.7005 215.685 16.9517 219.425 16.9517C221.701 16.9517 223.331 19.3708 223.331 21.502C223.331 25.3418 219.828 25.1887 219.224 25.1887L219.23 25.1948Z" fill="white"/>
<path d="M110.824 0.495902V29.3958C111.757 29.549 112.685 29.6286 113.618 29.6286C114.497 29.6286 115.418 29.549 116.376 29.3958V0.495902C115.418 0.342798 114.491 0.263184 113.582 0.263184C112.673 0.263184 111.757 0.336674 110.83 0.495902H110.824Z" fill="white"/>
<path d="M54.1248 0.495902V29.3958C55.0583 29.549 55.9858 29.6286 56.9194 29.6286C57.7981 29.6286 58.7195 29.549 59.6775 29.3958V0.495902C58.7195 0.342798 57.792 0.263184 56.8828 0.263184C55.9736 0.263184 55.0584 0.336674 54.1309 0.495902H54.1248Z" fill="white"/>
<path d="M43.8186 12.9464V24.864H42.4396C39.1995 24.864 37.3933 23.7188 37.3933 23.7188L37.4177 23.3146C37.4238 23.1431 37.4299 22.9655 37.4299 22.794V15.1511C36.478 14.998 35.5444 14.9183 34.6413 14.9183C33.7383 14.9183 32.8169 14.9918 31.8894 15.1511V22.0897C31.8894 24.4537 31.0351 24.864 29.5646 24.864C27.5326 24.864 25.6838 23.8106 25.6838 23.8106C25.2871 20.4117 23.963 16.6821 23.963 16.6821C22.9867 16.7985 22.0592 16.9822 21.1745 17.2333C20.2958 17.4844 19.411 17.8151 18.5506 18.2254C18.5506 18.2254 20.2592 22.347 20.2592 25.4213C20.2592 30.9453 17.6476 33.5725 12.9247 33.5725C8.47031 33.5725 5.8526 30.29 5.8526 26.5543C5.8526 23.0145 7.36588 20.7975 7.36588 20.7975C6.68856 20.2525 5.98683 19.7748 5.25461 19.3645C4.52238 18.9542 3.74135 18.6051 2.90539 18.2989C2.90539 18.2989 0.525635 22.1877 0.525635 27.0381C0.525635 37.2103 9.7395 38.3923 12.9247 38.3923C24.079 38.3923 25.5068 28.4711 25.5068 28.4711C25.5068 28.4711 27.4899 29.598 30.4676 29.598H31.3524C34.7817 29.598 36.0143 27.6199 36.0143 27.6199C36.0143 27.6199 38.4611 29.598 42.7874 29.598H49.3652V12.9402C48.4072 12.7871 47.4797 12.7075 46.5706 12.7075C45.6614 12.7075 44.7461 12.781 43.8186 12.9402V12.9464Z" fill="white"/>
<path d="M97.8087 12.3947C91.0234 12.3947 88.4484 20.6133 87.7894 22.8119C87.5758 23.5162 86.9534 24.8635 85.1167 24.8635H84.2563C81.3884 24.8635 79.7043 24.0061 79.7043 24.0061C79.7043 24.0061 79.8996 23.2406 79.8996 22.1505C79.8996 15.9222 71.6986 9.74902 71.6986 9.74902C70.8993 10.3186 70.1731 10.9187 69.5141 11.5679C68.8612 12.2109 68.251 12.9152 67.6897 13.6869C67.6897 13.6869 74.475 19.0026 74.475 22.5118C74.475 23.9877 73.8709 24.8635 70.8261 24.8635L63.1682 24.8757C63.0156 25.6902 62.9363 26.4802 62.9363 27.2519C62.9363 28.0235 63.0095 28.8013 63.1682 29.5975H70.7284C72.3698 29.5975 73.7855 29.4015 74.9387 29.0218C75.97 28.6788 76.8547 28.2134 77.5565 27.6316L77.6846 27.5275L77.8127 27.6316C78.5206 28.1889 79.3565 28.6482 80.3023 29.0034C81.2054 29.3402 82.3281 29.5301 83.6523 29.5791C83.8048 29.5913 85.7513 29.5975 85.7513 29.5975C89.504 29.5975 90.9745 27.1478 90.9745 27.1478C90.9745 27.1478 93.3665 29.8179 98.2968 29.8179C103.227 29.8179 106.711 26.1557 106.711 21.5564C106.711 16.9572 103.3 12.3885 97.8148 12.3885L97.8087 12.3947ZM97.4182 25.1942C94.6418 25.1942 92.6404 23.6999 92.6404 23.6999C92.6404 23.6999 93.9096 16.951 97.6134 16.951C99.8894 16.951 101.519 19.413 101.519 21.5074C101.519 23.1426 100.945 25.1942 97.4182 25.1942Z" fill="white"/>
<path d="M126.81 12.5C125.907 12.5 124.986 12.5735 124.058 12.7266V27.394C124.058 32.4036 120.678 32.6179 118.493 33.1874C118.536 34.0387 118.597 34.8838 118.707 35.6984C118.817 36.5129 118.975 37.2723 119.177 37.9827C125.425 36.9538 129.599 34.6327 129.599 26.3467V12.7327C128.641 12.5796 127.713 12.5061 126.804 12.5061L126.81 12.5Z" fill="white"/>
<path d="M154.831 46.0117C156.341 46.0117 157.565 44.7833 157.565 43.268C157.565 41.7528 156.341 40.5244 154.831 40.5244C153.321 40.5244 152.097 41.7528 152.097 43.268C152.097 44.7833 153.321 46.0117 154.831 46.0117Z" fill="white"/>
<path d="M161.281 46.0117C162.79 46.0117 164.014 44.7833 164.014 43.268C164.014 41.7528 162.79 40.5244 161.281 40.5244C159.771 40.5244 158.547 41.7528 158.547 43.268C158.547 44.7833 159.771 46.0117 161.281 46.0117Z" fill="white"/>
<path d="M236.81 37.9809C238.32 37.9809 239.543 36.7525 239.543 35.2373C239.543 33.722 238.32 32.4937 236.81 32.4937C235.3 32.4937 234.076 33.722 234.076 35.2373C234.076 36.7525 235.3 37.9809 236.81 37.9809Z" fill="white"/>
<path d="M243.259 37.9809C244.769 37.9809 245.993 36.7525 245.993 35.2373C245.993 33.722 244.769 32.4937 243.259 32.4937C241.75 32.4937 240.526 33.722 240.526 35.2373C240.526 36.7525 241.75 37.9809 243.259 37.9809Z" fill="white"/>
<path d="M194.639 37.9809C196.148 37.9809 197.372 36.7525 197.372 35.2373C197.372 33.722 196.148 32.4937 194.639 32.4937C193.129 32.4937 191.905 33.722 191.905 35.2373C191.905 36.7525 193.129 37.9809 194.639 37.9809Z" fill="white"/>
</svg>
