<svg width="137" height="80" viewBox="0 0 137 80" fill="none" xmlns="http://www.w3.org/2000/svg">
<path d="M87.062 34.093H96.1721C107.9 34.0563 117.437 24.4536 117.437 12.6829C117.437 9.84744 116.9 7.10993 115.832 4.51941L114.954 3.49668C111.329 1.30422 104.3 -0.00634766 96.4589 -0.00634766H70.3062V79.9936H90.4363V50.9039H97.0142L87.0559 34.093H87.062ZM86.3847 17.3495H95.9891C102.109 17.3495 106.32 19.9462 106.32 25.5314C106.32 31.1167 102.024 33.7133 95.9891 33.7133H86.3847V17.3557V17.3495Z" fill="white"/>
<path d="M38.5765 35.4277L38.4789 35.5502C38.3995 35.6543 32.1451 43.4381 24.1211 48.8519L43.5129 79.9994H66.5659L38.5765 35.4277Z" fill="white"/>
<path d="M20.1302 30.3942V0H0V55.6197L20.1302 30.3942Z" fill="white"/>
<path d="M15.9077 53.0236C6.44361 56.0734 0 58.1128 0 58.1128V80.0005H20.1302V51.2354C18.7451 51.9519 17.3294 52.5643 15.9077 53.0175V53.0236Z" fill="white"/>
<path d="M96.3553 80.0001H136.591L113.557 45.7599C121.324 41.7425 126.639 33.6157 126.639 24.2396C126.639 15.4392 121.959 7.74108 114.96 3.50928C116.302 6.28353 117.059 9.40073 117.059 12.6894C117.059 24.2763 107.717 33.6769 96.1783 33.7137H86.3909L104.434 64.1875H96.3553V80.0063V80.0001Z" fill="#B12028"/>
<path d="M43.8727 0L0 55.0012V58.4981C0 58.4981 4.23472 57.1875 16.0236 53.3844C27.8125 49.5813 37.4657 37.4554 38.7776 35.7835C40.0956 34.1178 66.8708 0 66.8708 0H43.8727Z" fill="#B12028"/>
</svg>
