<svg width="92" height="92" viewBox="0 0 92 92" fill="none" xmlns="http://www.w3.org/2000/svg">
<path d="M46 0C20.5949 0 0 20.5949 0 46C0 71.4051 20.5949 92 46 92C71.4051 92 92 71.4051 92 46C92 20.5949 71.4051 0 46 0ZM46 66.7C34.5677 66.7 25.3 57.4323 25.3 46C25.3 34.5677 34.5677 25.3 46 25.3C57.4323 25.3 66.7 34.5677 66.7 46C66.7 57.4323 57.4323 66.7 46 66.7Z" fill="#06753B"/>
<path d="M46 0C55.4985 0 64.7642 2.94041 72.5246 8.41745C80.285 13.8945 86.1596 21.6396 89.3418 30.5892C92.5239 39.5389 92.8576 49.2541 90.2969 58.401C87.7362 67.5478 82.4068 75.6777 75.0404 81.6743C67.6741 87.6708 58.632 91.24 49.1559 91.8916C39.6797 92.5433 30.2342 90.2455 22.1163 85.3137C13.9984 80.382 7.60628 73.0582 3.81762 64.3479C0.0289617 55.6377 -0.970426 45.9682 0.95669 36.6672L25.7305 41.8003C24.8633 45.9857 25.313 50.337 27.0179 54.2566C28.7228 58.1762 31.5993 61.4719 35.2523 63.6912C38.9054 65.9105 43.1559 66.9445 47.4201 66.6512C51.6844 66.358 55.7533 64.7519 59.0682 62.0534C62.3831 59.355 64.7813 55.6965 65.9336 51.5804C67.0859 47.4644 66.9358 43.0925 65.5038 39.0652C64.0718 35.0378 61.4282 31.5525 57.9361 29.0879C54.4439 26.6232 50.2743 25.3 46 25.3V0Z" fill="#02E56D"/>
<path d="M46 0C52.6494 0 59.2197 1.44158 65.2583 4.22541C71.2969 7.00925 76.6602 11.0692 80.9787 16.1254C85.2971 21.1816 88.468 27.114 90.2729 33.5137C92.0779 39.9135 92.4739 46.6285 91.4337 53.196C90.3935 59.7635 87.9418 66.0275 84.2476 71.5562C80.5534 77.085 75.7045 81.7471 70.0349 85.2214C64.3654 88.6957 58.01 90.8996 51.4067 91.6811C44.8034 92.4627 38.1092 91.8034 31.7852 89.7486L39.6033 65.6869C42.4491 66.6115 45.4615 66.9082 48.433 66.5565C51.4045 66.2048 54.2644 65.2131 56.8157 63.6497C59.367 62.0862 61.549 59.9882 63.2114 57.5003C64.8738 55.0124 65.9771 52.1936 66.4451 49.2382C66.9132 46.2828 66.735 43.2611 65.9228 40.3812C65.1106 37.5013 63.6837 34.8317 61.7404 32.5564C59.7971 30.2811 57.3836 28.4542 54.6663 27.2014C51.9489 25.9487 48.9922 25.3 46 25.3V0Z" fill="#009A49"/>
</svg>
