<svg width="20" height="20" viewBox="0 0 20 20" fill="none" xmlns="http://www.w3.org/2000/svg">
<path d="M7.42498 17.225C7.26665 17.225 7.10831 17.1667 6.98331 17.0417C6.74165 16.8 6.74165 16.4 6.98331 16.1583L12.4166 10.725C12.8166 10.325 12.8166 9.675 12.4166 9.275L6.98331 3.84167C6.74165 3.6 6.74165 3.2 6.98331 2.95833C7.22498 2.71667 7.62498 2.71667 7.86665 2.95833L13.3 8.39167C13.725 8.81667 13.9666 9.39167 13.9666 10C13.9666 10.6083 13.7333 11.1833 13.3 11.6083L7.86665 17.0417C7.74165 17.1583 7.58331 17.225 7.42498 17.225Z" fill="#4B586E"/>
</svg>
