<svg width="32" height="32" viewBox="0 0 32 32" fill="none" xmlns="http://www.w3.org/2000/svg">
<path d="M16.0001 2.6665C8.64008 2.6665 2.66675 8.63984 2.66675 15.9998C2.66675 23.3598 8.64008 29.3332 16.0001 29.3332C23.3601 29.3332 29.3334 23.3598 29.3334 15.9998C29.3334 8.63984 23.3601 2.6665 16.0001 2.6665ZM20.7067 16.0398C20.5067 16.2398 20.2534 16.3332 20.0001 16.3332C19.7467 16.3332 19.4934 16.2398 19.2934 16.0398L17.0001 13.7465V20.6665C17.0001 21.2132 16.5467 21.6665 16.0001 21.6665C15.4534 21.6665 15.0001 21.2132 15.0001 20.6665L15.0001 13.7465L12.7067 16.0398C12.3201 16.4265 11.6801 16.4265 11.2934 16.0398C10.9067 15.6532 10.9067 15.0132 11.2934 14.6265L15.2934 10.6265C15.6801 10.2398 16.3201 10.2398 16.7067 10.6265L20.7067 14.6265C21.0934 15.0132 21.0934 15.6532 20.7067 16.0398Z" fill="#31C48D"/>
</svg>
