<svg width="15" height="14" viewBox="0 0 15 14" fill="none" xmlns="http://www.w3.org/2000/svg">
<path d="M2.63237 8.92503L5.27487 11.5675C6.35987 12.6525 8.12153 12.6525 9.21237 11.5675L11.7732 9.00669C12.8582 7.92169 12.8582 6.16003 11.7732 5.06919L9.12487 2.43253C8.5707 1.87836 7.80653 1.58086 7.02487 1.6217L4.1082 1.7617C2.94153 1.8142 2.01403 2.7417 1.9557 3.90253L1.8157 6.81919C1.7807 7.60669 2.0782 8.37086 2.63237 8.92503Z" stroke="#96BF0D" stroke-width="1.5" stroke-linecap="round" stroke-linejoin="round"/>
<path d="M5.74154 7.00004C6.54695 7.00004 7.19987 6.34712 7.19987 5.54171C7.19987 4.73629 6.54695 4.08337 5.74154 4.08337C4.93612 4.08337 4.2832 4.73629 4.2832 5.54171C4.2832 6.34712 4.93612 7.00004 5.74154 7.00004Z" stroke="#96BF0D" stroke-width="1.5" stroke-linecap="round"/>
</svg>
