<svg width="14" height="14" viewBox="0 0 14 14" fill="none" xmlns="http://www.w3.org/2000/svg">
<path d="M2.43242 8.92503L5.07492 11.5675C6.15992 12.6525 7.92158 12.6525 9.01242 11.5675L11.5733 9.00669C12.6583 7.92169 12.6583 6.16003 11.5733 5.06919L8.92492 2.43253C8.37075 1.87836 7.60658 1.58086 6.82492 1.6217L3.90825 1.7617C2.74158 1.8142 1.81408 2.7417 1.75575 3.90253L1.61575 6.81919C1.58075 7.60669 1.87825 8.37086 2.43242 8.92503Z" stroke="#009CDA" stroke-width="1.5" stroke-linecap="round" stroke-linejoin="round"/>
<path d="M5.54159 7.00004C6.347 7.00004 6.99992 6.34712 6.99992 5.54171C6.99992 4.73629 6.347 4.08337 5.54159 4.08337C4.73617 4.08337 4.08325 4.73629 4.08325 5.54171C4.08325 6.34712 4.73617 7.00004 5.54159 7.00004Z" stroke="#009CDA" stroke-width="1.5" stroke-linecap="round"/>
</svg>
