<svg width="16" height="16" viewBox="0 0 16 16" fill="none" xmlns="http://www.w3.org/2000/svg">
<path d="M6.80006 11.6C5.8507 11.6 4.92266 11.3185 4.13329 10.7911C3.34392 10.2636 2.72869 9.51396 2.36538 8.63688C2.00208 7.75979 1.90702 6.79468 2.09223 5.86357C2.27745 4.93246 2.73461 4.07718 3.40591 3.40589C4.07721 2.7346 4.93249 2.27744 5.86361 2.09223C6.79473 1.90702 7.75986 2.00208 8.63696 2.36538C9.51406 2.72868 10.2637 3.34391 10.7912 4.13326C11.3186 4.92262 11.6001 5.85065 11.6001 6.8C11.5987 8.0726 11.0925 9.29267 10.1926 10.1925C9.29276 11.0924 8.07267 11.5986 6.80006 11.6ZM6.80006 3.2C6.08804 3.2 5.39201 3.41114 4.79998 3.80671C4.20796 4.20228 3.74653 4.76453 3.47405 5.42234C3.20157 6.08015 3.13028 6.80399 3.26919 7.50232C3.4081 8.20066 3.75097 8.84211 4.25444 9.34558C4.75792 9.84905 5.39939 10.1919 6.09773 10.3308C6.79606 10.4697 7.51991 10.3984 8.17773 10.126C8.83556 9.85349 9.39781 9.39207 9.79338 8.80005C10.189 8.20803 10.4001 7.51201 10.4001 6.8C10.3991 5.84551 10.0196 4.93039 9.34462 4.25547C8.66969 3.58055 7.75456 3.20095 6.80006 3.2Z" fill="#9499A2"/>
<path d="M13.4001 14C13.241 14 13.0884 13.9367 12.9759 13.8242L10.5759 11.4242C10.4666 11.311 10.4061 11.1595 10.4075 11.0022C10.4088 10.8448 10.472 10.6944 10.5832 10.5831C10.6944 10.4719 10.8449 10.4088 11.0023 10.4074C11.1596 10.406 11.3111 10.4665 11.4243 10.5758L13.8243 12.9758C13.9082 13.0597 13.9653 13.1666 13.9885 13.283C14.0116 13.3994 13.9997 13.52 13.9543 13.6296C13.9089 13.7392 13.832 13.8329 13.7334 13.8988C13.6348 13.9648 13.5188 14 13.4001 14Z" fill="#9499A2"/>
</svg>
