<svg width="12" height="12" viewBox="0 0 12 12" fill="none" xmlns="http://www.w3.org/2000/svg">
<mask id="path-1-inside-1_1_3293" fill="white">
<path d="M6.71314 6.00614L9.35964 3.35964C9.4074 3.31352 9.44549 3.25835 9.47169 3.19735C9.4979 3.13634 9.51169 3.07073 9.51227 3.00434C9.51285 2.93796 9.5002 2.87212 9.47506 2.81067C9.44991 2.74922 9.41279 2.69339 9.36584 2.64645C9.3189 2.5995 9.26307 2.56237 9.20162 2.53723C9.14017 2.51209 9.07433 2.49944 9.00794 2.50002C8.94155 2.5006 8.87594 2.51439 8.81494 2.54059C8.75394 2.5668 8.69877 2.60489 8.65264 2.65264L6.00614 5.29914L3.35964 2.65264C3.26534 2.56157 3.13904 2.51117 3.00794 2.51231C2.87685 2.51345 2.75144 2.56603 2.65873 2.65873C2.56603 2.75144 2.51345 2.87685 2.51231 3.00794C2.51117 3.13904 2.56157 3.26534 2.65264 3.35964L5.29914 6.00614L2.65264 8.65264C2.60489 8.69877 2.5668 8.75394 2.54059 8.81494C2.51439 8.87594 2.5006 8.94155 2.50002 9.00794C2.49944 9.07433 2.51209 9.14017 2.53723 9.20162C2.56237 9.26307 2.5995 9.3189 2.64645 9.36584C2.69339 9.41279 2.74922 9.44991 2.81067 9.47506C2.87212 9.5002 2.93796 9.51285 3.00434 9.51227C3.07073 9.51169 3.13634 9.4979 3.19735 9.47169C3.25835 9.44549 3.31352 9.4074 3.35964 9.35964L6.00614 6.71314L8.65264 9.35964C8.74694 9.45072 8.87325 9.50112 9.00434 9.49998C9.13544 9.49884 9.26085 9.44626 9.35355 9.35355C9.44626 9.26085 9.49884 9.13544 9.49998 9.00434C9.50112 8.87325 9.45072 8.74694 9.35964 8.65264L6.71314 6.00614Z"/>
</mask>
<path d="M6.71314 6.00614L9.35964 3.35964C9.4074 3.31352 9.44549 3.25835 9.47169 3.19735C9.4979 3.13634 9.51169 3.07073 9.51227 3.00434C9.51285 2.93796 9.5002 2.87212 9.47506 2.81067C9.44991 2.74922 9.41279 2.69339 9.36584 2.64645C9.3189 2.5995 9.26307 2.56237 9.20162 2.53723C9.14017 2.51209 9.07433 2.49944 9.00794 2.50002C8.94155 2.5006 8.87594 2.51439 8.81494 2.54059C8.75394 2.5668 8.69877 2.60489 8.65264 2.65264L6.00614 5.29914L3.35964 2.65264C3.26534 2.56157 3.13904 2.51117 3.00794 2.51231C2.87685 2.51345 2.75144 2.56603 2.65873 2.65873C2.56603 2.75144 2.51345 2.87685 2.51231 3.00794C2.51117 3.13904 2.56157 3.26534 2.65264 3.35964L5.29914 6.00614L2.65264 8.65264C2.60489 8.69877 2.5668 8.75394 2.54059 8.81494C2.51439 8.87594 2.5006 8.94155 2.50002 9.00794C2.49944 9.07433 2.51209 9.14017 2.53723 9.20162C2.56237 9.26307 2.5995 9.3189 2.64645 9.36584C2.69339 9.41279 2.74922 9.44991 2.81067 9.47506C2.87212 9.5002 2.93796 9.51285 3.00434 9.51227C3.07073 9.51169 3.13634 9.4979 3.19735 9.47169C3.25835 9.44549 3.31352 9.4074 3.35964 9.35964L6.00614 6.71314L8.65264 9.35964C8.74694 9.45072 8.87325 9.50112 9.00434 9.49998C9.13544 9.49884 9.26085 9.44626 9.35355 9.35355C9.44626 9.26085 9.49884 9.13544 9.49998 9.00434C9.50112 8.87325 9.45072 8.74694 9.35964 8.65264L6.71314 6.00614Z" fill="#4B586E"/>
<path d="M6.71314 6.00614L6.00604 5.29904L5.29893 6.00614L6.00604 6.71325L6.71314 6.00614ZM9.35964 3.35964L8.66493 2.64036L8.65868 2.64639L8.65254 2.65254L9.35964 3.35964ZM8.65264 2.65264L9.35975 3.35975L9.3659 3.35361L9.37193 3.34736L8.65264 2.65264ZM6.00614 5.29914L5.29904 6.00625L6.00614 6.71336L6.71325 6.00625L6.00614 5.29914ZM3.35964 2.65264L4.06675 1.94554L4.06061 1.93939L4.05436 1.93336L3.35964 2.65264ZM2.65264 3.35964L1.93336 4.05436L1.93939 4.06061L1.94554 4.06675L2.65264 3.35964ZM5.29914 6.00614L6.00625 6.71325L6.71336 6.00614L6.00625 5.29904L5.29914 6.00614ZM2.65264 8.65264L3.34736 9.37193L3.35361 9.3659L3.35975 9.35975L2.65264 8.65264ZM3.35964 9.35964L2.65254 8.65254L2.64639 8.65868L2.64036 8.66493L3.35964 9.35964ZM6.00614 6.71314L6.71325 6.00604L6.00614 5.29893L5.29904 6.00604L6.00614 6.71314ZM8.65264 9.35964L7.94554 10.0668L7.95168 10.0729L7.95793 10.0789L8.65264 9.35964ZM9.35964 8.65264L10.0789 7.95793L10.0729 7.95168L10.0668 7.94554L9.35964 8.65264ZM7.42025 6.71325L10.0668 4.06675L8.65254 2.65254L6.00604 5.29904L7.42025 6.71325ZM10.0544 4.07893C10.1976 3.94056 10.3119 3.77504 10.3905 3.59204L8.55288 2.80265C8.57908 2.74166 8.61717 2.68648 8.66493 2.64036L10.0544 4.07893ZM10.3905 3.59204C10.4691 3.40904 10.5105 3.21221 10.5122 3.01303L8.51231 2.99566C8.51288 2.92926 8.52668 2.86365 8.55288 2.80265L10.3905 3.59204ZM10.5122 3.01303C10.514 2.81387 10.476 2.61635 10.4006 2.432L8.54952 3.18933C8.52438 3.12788 8.51173 3.06204 8.51231 2.99566L10.5122 3.01303ZM10.4006 2.432C10.3252 2.24765 10.2138 2.08018 10.0729 1.93934L8.65873 3.35355C8.61179 3.30661 8.57466 3.25078 8.54952 3.18933L10.4006 2.432ZM10.0729 1.93934C9.93211 1.7985 9.76463 1.68712 9.58029 1.6117L8.82295 3.46277C8.76151 3.43763 8.70568 3.4005 8.65873 3.35355L10.0729 1.93934ZM9.58029 1.6117C9.39594 1.53628 9.19842 1.49833 8.99925 1.50006L9.01663 3.49998C8.95024 3.50056 8.8844 3.48791 8.82295 3.46277L9.58029 1.6117ZM8.99925 1.50006C8.80009 1.50179 8.60326 1.54317 8.42025 1.62178L9.20963 3.45941C9.14863 3.48561 9.08302 3.4994 9.01663 3.49998L8.99925 1.50006ZM8.42025 1.62178C8.23725 1.70039 8.07173 1.81467 7.93336 1.95793L9.37193 3.34736C9.32581 3.39511 9.27063 3.4332 9.20963 3.45941L8.42025 1.62178ZM7.94554 1.94554L5.29904 4.59204L6.71325 6.00625L9.35975 3.35975L7.94554 1.94554ZM6.71325 4.59204L4.06675 1.94554L2.65254 3.35975L5.29904 6.00625L6.71325 4.59204ZM4.05436 1.93336C3.77145 1.66012 3.39255 1.50893 2.99925 1.51234L3.01663 3.51227C2.88553 3.51341 2.75923 3.46301 2.66493 3.37193L4.05436 1.93336ZM2.99925 1.51234C2.60596 1.51576 2.22974 1.67352 1.95163 1.95163L3.36584 3.36584C3.27314 3.45855 3.14773 3.51113 3.01663 3.51227L2.99925 1.51234ZM1.95163 1.95163C1.67352 2.22974 1.51576 2.60596 1.51234 2.99925L3.51227 3.01663C3.51113 3.14773 3.45855 3.27314 3.36584 3.36584L1.95163 1.95163ZM1.51234 2.99925C1.50893 3.39255 1.66012 3.77145 1.93336 4.05436L3.37193 2.66493C3.46301 2.75923 3.51341 2.88553 3.51227 3.01663L1.51234 2.99925ZM1.94554 4.06675L4.59204 6.71325L6.00625 5.29904L3.35975 2.65254L1.94554 4.06675ZM4.59204 5.29904L1.94554 7.94554L3.35975 9.35975L6.00625 6.71325L4.59204 5.29904ZM1.95793 7.93336C1.81467 8.07173 1.70039 8.23725 1.62178 8.42025L3.45941 9.20963C3.4332 9.27063 3.39511 9.32581 3.34736 9.37193L1.95793 7.93336ZM1.62178 8.42025C1.54317 8.60326 1.50179 8.80009 1.50006 8.99925L3.49998 9.01663C3.4994 9.08302 3.48561 9.14863 3.45941 9.20963L1.62178 8.42025ZM1.50006 8.99925C1.49833 9.19842 1.53628 9.39594 1.6117 9.58029L3.46277 8.82295C3.48791 8.8844 3.50056 8.95024 3.49998 9.01663L1.50006 8.99925ZM1.6117 9.58029C1.68712 9.76463 1.7985 9.93211 1.93934 10.0729L3.35355 8.65873C3.4005 8.70568 3.43763 8.76151 3.46277 8.82295L1.6117 9.58029ZM1.93934 10.0729C2.08018 10.2138 2.24765 10.3252 2.432 10.4006L3.18933 8.54952C3.25078 8.57466 3.30661 8.61179 3.35355 8.65873L1.93934 10.0729ZM2.432 10.4006C2.61635 10.476 2.81387 10.514 3.01303 10.5122L2.99566 8.51231C3.06204 8.51173 3.12788 8.52438 3.18933 8.54952L2.432 10.4006ZM3.01303 10.5122C3.21221 10.5105 3.40904 10.4691 3.59204 10.3905L2.80265 8.55288C2.86365 8.52668 2.92926 8.51288 2.99566 8.51231L3.01303 10.5122ZM3.59204 10.3905C3.77504 10.3119 3.94056 10.1976 4.07893 10.0544L2.64036 8.66493C2.68648 8.61717 2.74166 8.57908 2.80265 8.55288L3.59204 10.3905ZM4.06675 10.0668L6.71325 7.42025L5.29904 6.00604L2.65254 8.65254L4.06675 10.0668ZM5.29904 7.42025L7.94554 10.0668L9.35975 8.65254L6.71325 6.00604L5.29904 7.42025ZM7.95793 10.0789C8.24084 10.3522 8.61974 10.5034 9.01303 10.4999L8.99566 8.50002C9.12675 8.49888 9.25305 8.54928 9.34736 8.64036L7.95793 10.0789ZM9.01303 10.4999C9.40633 10.4965 9.78255 10.3388 10.0607 10.0607L8.64645 8.64645C8.73915 8.55374 8.86456 8.50116 8.99566 8.50002L9.01303 10.4999ZM10.0607 10.0607C10.3388 9.78255 10.4965 9.40633 10.4999 9.01303L8.50002 8.99566C8.50116 8.86456 8.55374 8.73915 8.64645 8.64645L10.0607 10.0607ZM10.4999 9.01303C10.5034 8.61974 10.3522 8.24084 10.0789 7.95793L8.64036 9.34736C8.54928 9.25305 8.49888 9.12675 8.50002 8.99566L10.4999 9.01303ZM10.0668 7.94554L7.42025 5.29904L6.00604 6.71325L8.65254 9.35975L10.0668 7.94554Z" fill="#9499A2" mask="url(#path-1-inside-1_1_3293)"/>
</svg>
